<svg id="Layer_1" enable-background="new 0 0 510 510" height="512" viewBox="0 0 510 510" width="512" xmlns="http://www.w3.org/2000/svg"><g><path d="m480 175c0-96.495-78.505-175-175-175h-100c-96.495 0-175 78.505-175 175v35h38.072c-5.123 8.832-8.072 19.075-8.072 30 0 17.908 7.896 33.997 20.377 45-12.481 11.003-20.377 27.092-20.377 45 0 10.925 2.949 21.168 8.072 30h-38.072v15c0 74.439 60.561 135 135 135h180c74.439 0 135-60.561 135-135v-15h-38.072c5.123-8.832 8.072-19.075 8.072-30 0-17.908-7.896-33.997-20.377-45 12.481-11.003 20.377-27.092 20.377-45 0-10.925-2.949-21.168-8.072-30h38.072zm-31.068 215c-7.301 50.818-51.127 90-103.932 90h-180c-52.805 0-96.631-39.182-103.932-90h220.511l33.421 59.712 33.421-59.712zm-58.932-120h-154.482l49.091-60h105.391c16.542 0 30 13.458 30 30s-13.458 30-30 30zm30 60c0 16.542-13.458 30-30 30h-24.788l32.946-58.863c12.588 3.562 21.842 15.148 21.842 28.863zm-55.585-30-49.415 88.288-49.415-88.288zm-175.822-20.023-47.711-69.977h104.964zm-43.112-9.977h-25.481c-16.542 0-30-13.458-30-30 0-11.768 6.813-21.969 16.699-26.881zm-25.481 30h45.937l20.471 30.023 24.564-30.023h20.234l33.582 60h-144.788c-16.542 0-30-13.458-30-30s13.458-30 30-30zm330-120h-390v-5c0-79.953 65.047-145 145-145h100c79.953 0 145 65.047 145 145z"/><path d="m240 70.607h30v30h-30z" transform="matrix(.707 -.707 .707 .707 14.155 205.386)"/><path d="m169.394 109.394h30v30h-30z" transform="matrix(.707 -.707 .707 .707 -33.952 166.82)"/><path d="m319.394 109.394h30v30h-30z" transform="matrix(.707 -.707 .707 .707 9.982 272.886)"/></g></svg>